<?xml version="1.0" encoding="UTF-8" standalone="no"?>
<svg
   xmlns:dc="http://purl.org/dc/elements/1.1/"
   xmlns:cc="http://creativecommons.org/ns#"
   xmlns:rdf="http://www.w3.org/1999/02/22-rdf-syntax-ns#"
   xmlns:svg="http://www.w3.org/2000/svg"
   xmlns="http://www.w3.org/2000/svg"
   xmlns:xlink="http://www.w3.org/1999/xlink"
   xmlns:sodipodi="http://sodipodi.sourceforge.net/DTD/sodipodi-0.dtd"
   xmlns:inkscape="http://www.inkscape.org/namespaces/inkscape"
   height="471pt"
   viewBox="-5 0 471 471.57908"
   width="471pt"
   version="1.1"
   id="svg6"
   sodipodi:docname="church.svg"
   inkscape:version="0.92.4 (5da689c313, 2019-01-14)">
  <metadata
     id="metadata12">
    <rdf:RDF>
      <cc:Work
         rdf:about="">
        <dc:format>image/svg+xml</dc:format>
        <dc:type
           rdf:resource="http://purl.org/dc/dcmitype/StillImage" />
        <dc:title />
      </cc:Work>
    </rdf:RDF>
  </metadata>
  <defs
     id="defs10" />
  <sodipodi:namedview
     pagecolor="#ffffff"
     bordercolor="#666666"
     borderopacity="1"
     objecttolerance="10"
     gridtolerance="10"
     guidetolerance="10"
     inkscape:pageopacity="0"
     inkscape:pageshadow="2"
     inkscape:window-width="1920"
     inkscape:window-height="1017"
     id="namedview8"
     showgrid="false"
     inkscape:zoom="1"
     inkscape:cx="321.21572"
     inkscape:cy="352.83174"
     inkscape:window-x="-8"
     inkscape:window-y="-8"
     inkscape:window-maximized="1"
     inkscape:current-layer="g4" />
  <g
     id="g4"
     transform="matrix(11.28269,0,0,11.282691,-39.642402,-55.151096)"
     style="fill:none;stroke:#ff6600;stroke-width:1.03992553;stroke-miterlimit:4;stroke-dasharray:none;stroke-opacity:1">
    <path
       sodipodi:type="inkscape:offset"
       inkscape:radius="0"
       inkscape:original="M 4.2207031 3.4726562 A 0.36192949 0.36192949 0 0 0 3.9882812 3.5703125 L 2.1171875 5.3300781 A 0.36192949 0.36192949 0 0 0 2.109375 5.3378906 L -4.2285156 11.693359 C -4.7018785 12.168883 -4.8258999 12.882088 -4.5761719 13.484375 C -4.3261278 14.089522 -3.7427906 14.434626 -3.1289062 14.46875 L -3.1289062 19.248047 L -11.068359 26.164062 C -12.125126 27.085753 -12.510273 28.54919 -12.015625 29.869141 A 0.36192949 0.36192949 0 0 0 -12.013672 29.869141 C -11.544931 31.117855 -10.376391 31.800339 -9.1425781 31.912109 L -9.1425781 44.289062 C -9.1425781 45.253574 -8.3157207 45.941406 -7.4277344 45.941406 L 1.1777344 45.941406 A 0.36192949 0.36192949 0 0 0 1.5390625 45.580078 L 1.5390625 37.023438 C 1.5390625 35.507739 2.7246157 34.310547 4.2363281 34.310547 C 5.7471238 34.310547 6.9316406 35.506332 6.9316406 37.023438 L 6.9316406 45.578125 A 0.36192949 0.36192949 0 0 0 7.2929688 45.939453 L 15.90625 45.939453 C 16.795521 45.939453 17.613281 45.24692 17.613281 44.289062 L 17.613281 31.912109 C 18.850451 31.802652 20.022824 31.120775 20.492188 29.869141 A 0.36192949 0.36192949 0 0 0 20.494141 29.869141 C 20.98946 28.547396 20.598973 27.085866 19.544922 26.164062 A 0.36192949 0.36192949 0 0 0 19.314453 26.074219 L 19.439453 26.074219 L 11.603516 19.248047 L 11.603516 14.46875 C 12.220284 14.435781 12.804291 14.088272 13.054688 13.484375 C 13.304616 12.881604 13.179865 12.167936 12.703125 11.693359 L 6.3632812 5.3378906 A 0.36192949 0.36192949 0 0 0 6.3554688 5.3300781 L 4.484375 3.5703125 A 0.36192949 0.36192949 0 0 0 4.2207031 3.4726562 z M 4.2363281 5.7578125 L 5.1308594 6.5996094 L 11.25 12.732422 L 10.201172 12.732422 A 0.36192949 0.36192949 0 0 0 9.8398438 13.09375 L 9.8398438 19.884766 A 0.36192949 0.36192949 0 0 0 9.9628906 20.158203 L 18.382812 27.494141 C 18.93229 27.976182 19.091043 28.57968 18.839844 29.25 L 18.841797 29.25 C 18.605914 29.879018 18.058559 30.195312 17.28125 30.195312 L 16.212891 30.195312 A 0.36192949 0.36192949 0 0 0 15.851562 30.556641 L 15.851562 44.177734 L 8.6953125 44.177734 L 8.6953125 37.023438 C 8.6953125 34.564343 6.6992663 32.546875 4.2363281 32.546875 C 1.7723542 32.546875 -0.22265625 34.565238 -0.22265625 37.023438 L -0.22265625 44.177734 L -7.3789062 44.177734 L -7.3789062 30.554688 A 0.36192949 0.36192949 0 0 0 -7.7402344 30.193359 L -8.8027344 30.193359 C -9.5788166 30.193359 -10.13016 29.876233 -10.365234 29.25 L -10.363281 29.25 C -10.615653 28.576555 -10.458978 27.974512 -9.9082031 27.494141 L -1.4902344 20.158203 A 0.36192949 0.36192949 0 0 0 -1.3671875 19.884766 L -1.3671875 13.09375 A 0.36192949 0.36192949 0 0 0 -1.7285156 12.732422 L -2.7734375 12.732422 L 3.3417969 6.5996094 L 4.2363281 5.7578125 z M 4.2460938 13.083984 C 2.6388894 13.083984 1.3164062 14.399885 1.3164062 16.007812 L 1.3164062 19.474609 C 1.3164062 20.300099 2.0225167 20.902344 2.7851562 20.902344 L 5.7402344 20.902344 C 6.5179462 20.902344 7.1777344 20.264292 7.1777344 19.474609 L 7.1777344 16.007812 C 7.1777344 14.398327 5.8528014 13.083984 4.2460938 13.083984 z M 4.2460938 14.847656 C 4.902076 14.847656 5.4160156 15.357822 5.4160156 16.007812 L 5.4160156 19.140625 L 3.0800781 19.140625 L 3.0800781 16.007812 C 3.0800781 15.357578 3.5906706 14.847656 4.2460938 14.847656 z M -7.4042969 44.171875 C -7.4049817 44.171296 -7.401919 44.178486 -7.4023438 44.177734 L -7.4277344 44.177734 C -7.3639293 44.177734 -7.3909236 44.183187 -7.4042969 44.171875 z "
       xlink:href="#path2-3"
       style="color:#000000;font-style:normal;font-variant:normal;font-weight:normal;font-stretch:normal;font-size:medium;line-height:normal;font-family:sans-serif;font-variant-ligatures:normal;font-variant-position:normal;font-variant-caps:normal;font-variant-numeric:normal;font-variant-alternates:normal;font-feature-settings:normal;text-indent:0;text-align:start;text-decoration:none;text-decoration-line:none;text-decoration-style:solid;text-decoration-color:#000000;letter-spacing:normal;word-spacing:normal;text-transform:none;writing-mode:lr-tb;direction:ltr;text-orientation:mixed;dominant-baseline:auto;baseline-shift:baseline;text-anchor:start;white-space:normal;shape-padding:0;clip-rule:nonzero;display:inline;overflow:visible;visibility:visible;opacity:1;isolation:auto;mix-blend-mode:normal;color-interpolation:sRGB;color-interpolation-filters:linearRGB;solid-color:#000000;solid-opacity:1;vector-effect:none;fill:#ff6600;fill-opacity:1;fill-rule:nonzero;stroke:none;stroke-width:0.01331105;stroke-linecap:butt;stroke-linejoin:miter;stroke-miterlimit:4;stroke-dasharray:none;stroke-dashoffset:0;stroke-opacity:1;color-rendering:auto;image-rendering:auto;shape-rendering:auto;text-rendering:auto;enable-background:accumulate"
       id="path818"
       d="M 4.2207031,3.4726562 A 0.36192949,0.36192949 0 0 0 3.9882812,3.5703125 L 2.1171875,5.3300781 a 0.36192949,0.36192949 0 0 0 -0.00781,0.00781 l -6.3378906,6.3554684 c -0.4733629,0.475524 -0.5973843,1.188729 -0.3476563,1.791016 0.2500441,0.605147 0.8333813,0.950251 1.4472657,0.984375 v 4.779297 l -7.9394528,6.916015 c -1.056767,0.921691 -1.441914,2.385128 -0.947266,3.705079 a 0.36192949,0.36192949 0 0 0 0.002,0 c 0.468741,1.248714 1.637281,1.931198 2.8710939,2.042968 v 12.376953 c 0,0.964512 0.8268574,1.652344 1.7148437,1.652344 h 8.6054688 a 0.36192949,0.36192949 0 0 0 0.3613281,-0.361328 v -8.55664 c 0,-1.515699 1.1855532,-2.712891 2.6972656,-2.712891 1.5107957,0 2.6953125,1.195785 2.6953125,2.712891 v 8.554687 a 0.36192949,0.36192949 0 0 0 0.3613282,0.361328 H 15.90625 c 0.889271,0 1.707031,-0.692533 1.707031,-1.650391 V 31.912109 c 1.23717,-0.109457 2.409543,-0.791334 2.878907,-2.042968 a 0.36192949,0.36192949 0 0 0 0.002,0 c 0.495319,-1.321745 0.104832,-2.783275 -0.949219,-3.705079 a 0.36192949,0.36192949 0 0 0 -0.230469,-0.08984 h 0.125 L 11.603516,19.248047 V 14.46875 c 0.616768,-0.03297 1.200775,-0.380478 1.451172,-0.984375 0.249928,-0.602771 0.125177,-1.316439 -0.351563,-1.791016 L 6.3632812,5.3378906 a 0.36192949,0.36192949 0 0 0 -0.00781,-0.00781 L 4.484375,3.5703125 A 0.36192949,0.36192949 0 0 0 4.2207031,3.4726562 Z M 4.2363281,5.7578125 5.1308594,6.5996094 11.25,12.732422 H 10.201172 A 0.36192949,0.36192949 0 0 0 9.8398438,13.09375 v 6.791016 a 0.36192949,0.36192949 0 0 0 0.1230468,0.273437 l 8.4199214,7.335938 c 0.549478,0.482041 0.708231,1.085539 0.457032,1.755859 h 0.002 c -0.235883,0.629018 -0.783238,0.945312 -1.560547,0.945312 h -1.068359 a 0.36192949,0.36192949 0 0 0 -0.361329,0.361329 V 44.177734 H 8.6953125 v -7.154296 c 0,-2.459095 -1.9960462,-4.476563 -4.4589844,-4.476563 -2.4639739,0 -4.45898435,2.018363 -4.45898435,4.476563 v 7.154296 H -7.3789062 V 30.554688 a 0.36192949,0.36192949 0 0 0 -0.3613282,-0.361329 h -1.0625 c -0.7760822,0 -1.3274256,-0.317126 -1.5624996,-0.943359 h 0.002 c -0.252372,-0.673445 -0.0957,-1.275488 0.4550779,-1.755859 l 8.4179687,-7.335938 a 0.36192949,0.36192949 0 0 0 0.1230469,-0.273437 V 13.09375 A 0.36192949,0.36192949 0 0 0 -1.7285156,12.732422 H -2.7734375 L 3.3417969,6.5996094 Z m 0.00977,7.3261715 c -1.6072044,0 -2.9296876,1.315901 -2.9296876,2.923828 v 3.466797 c 0,0.82549 0.7061105,1.427735 1.46875,1.427735 h 2.9550782 c 0.7777118,0 1.4375,-0.638052 1.4375,-1.427735 v -3.466797 c 0,-1.609485 -1.324933,-2.923828 -2.9316406,-2.923828 z m 0,1.763672 c 0.6559822,0 1.1699218,0.510166 1.1699218,1.160156 v 3.132813 H 3.0800781 v -3.132813 c 0,-0.650234 0.5105925,-1.160156 1.1660157,-1.160156 z M -7.4042969,44.171875 c -6.848e-4,-5.79e-4 0.00238,0.0066 0.00195,0.0059 h -0.025391 c 0.063805,0 0.036811,0.0055 0.023437,-0.0059 z"
       transform="matrix(0.97170964,0,0,0.98119427,19.168337,1.5158752)" />
  </g>
</svg>
