<?xml version="1.0" encoding="UTF-8" standalone="no"?>
<!-- Generator: Adobe Illustrator 19.0.0, SVG Export Plug-In . SVG Version: 6.00 Build 0)  -->

<svg
   xmlns:dc="http://purl.org/dc/elements/1.1/"
   xmlns:cc="http://creativecommons.org/ns#"
   xmlns:rdf="http://www.w3.org/1999/02/22-rdf-syntax-ns#"
   xmlns:svg="http://www.w3.org/2000/svg"
   xmlns="http://www.w3.org/2000/svg"
   xmlns:sodipodi="http://sodipodi.sourceforge.net/DTD/sodipodi-0.dtd"
   xmlns:inkscape="http://www.inkscape.org/namespaces/inkscape"
   version="1.1"
   id="Capa_1"
   x="0px"
   y="0px"
   viewBox="0 0 470 470"
   style="enable-background:new 0 0 470 470;"
   xml:space="preserve"
   sodipodi:docname="church.svg"
   inkscape:version="0.92.4 (5da689c313, 2019-01-14)"
   inkscape:export-filename="C:\Users\rmoyano\Pictures\iglesia.png"
   inkscape:export-xdpi="300"
   inkscape:export-ydpi="300"><metadata
   id="metadata43"><rdf:RDF><cc:Work
       rdf:about=""><dc:format>image/svg+xml</dc:format><dc:type
         rdf:resource="http://purl.org/dc/dcmitype/StillImage" /><dc:title></dc:title></cc:Work></rdf:RDF></metadata><defs
   id="defs41" /><sodipodi:namedview
   pagecolor="#ffffff"
   bordercolor="#666666"
   borderopacity="1"
   objecttolerance="10"
   gridtolerance="10"
   guidetolerance="10"
   inkscape:pageopacity="0"
   inkscape:pageshadow="2"
   inkscape:window-width="1920"
   inkscape:window-height="1017"
   id="namedview39"
   showgrid="false"
   inkscape:zoom="1.4202315"
   inkscape:cx="268.98848"
   inkscape:cy="221.61926"
   inkscape:window-x="-8"
   inkscape:window-y="-8"
   inkscape:window-maximized="1"
   inkscape:current-layer="g6" />
<g
   id="g3802"
   transform="matrix(6.2654456,0,0,6.2654456,41.250285,6.6243891)" /><g
   id="g6"
   transform="matrix(0.79281699,0,0,0.71306424,243.78545,321.56532)">
	
	
<g
   id="g4"
   transform="matrix(13.529396,0,0,15.042594,-325.14678,-508.18763)"
   style="fill:none;stroke:#ff6600;stroke-width:1;stroke-miterlimit:4;stroke-dasharray:none;stroke-opacity:1"><path
     d="M 37.813,27.945 29.571,20.766 V 14.73 h 0.799 c 0.311,0 0.601,-0.179 0.72,-0.466 0.119,-0.287 0.062,-0.609 -0.159,-0.829 L 24.595,7.084 23.0865,5.6654577 21.578,7.084 l -6.333,6.35 c -0.219,0.22 -0.276,0.543 -0.157,0.83 0.119,0.288 0.41,0.466 0.721,0.466 h 0.793 v 6.036 l -8.241,7.18 c -0.798,0.696 -1.072,1.741 -0.701,2.731 0.372,0.991 1.329,1.515 2.387,1.515 h 0.542 v 13.215 c 0,0.425 0.409,0.77 0.833,0.77 h 8.086 V 38.14 c 0,-1.985 1.592,-3.594 3.578,-3.594 1.985,0 3.577,1.608 3.577,3.594 v 8.036 h 8.093 c 0.424,0 0.826,-0.345 0.826,-0.77 V 32.193 h 0.549 c 1.059,0 2.014,-0.524 2.386,-1.516 0.371,-0.99 0.093,-2.035 -0.704,-2.732 z M 25.146,20.592 c 0,0.312 -0.242,0.547 -0.556,0.547 h -2.955 c -0.313,0 -0.587,-0.235 -0.587,-0.547 v -3.467 c 0,-1.127 0.919,-2.042 2.048,-2.042 1.129,0 2.05,0.914 2.05,2.042 z"
     id="path2-3"
     inkscape:connector-curvature="0"
     sodipodi:nodetypes="cccssccccccsccccscsscssscsscscccssssssc"
     style="fill:none;stroke:#ff6600;stroke-width:1;stroke-miterlimit:4;stroke-dasharray:none;stroke-opacity:1" /></g></g>
<g
   id="g8">
</g>
<g
   id="g10">
</g>
<g
   id="g12">
</g>
<g
   id="g14">
</g>
<g
   id="g16">
</g>
<g
   id="g18">
</g>
<g
   id="g20">
</g>
<g
   id="g22">
</g>
<g
   id="g24">
</g>
<g
   id="g26">
</g>
<g
   id="g28">
</g>
<g
   id="g30">
</g>
<g
   id="g32">
</g>
<g
   id="g34">
</g>
<g
   id="g36">
</g>
</svg>