<?xml version="1.0" encoding="UTF-8" standalone="no"?>
<svg
   xmlns:dc="http://purl.org/dc/elements/1.1/"
   xmlns:cc="http://creativecommons.org/ns#"
   xmlns:rdf="http://www.w3.org/1999/02/22-rdf-syntax-ns#"
   xmlns:svg="http://www.w3.org/2000/svg"
   xmlns="http://www.w3.org/2000/svg"
   xmlns:sodipodi="http://sodipodi.sourceforge.net/DTD/sodipodi-0.dtd"
   xmlns:inkscape="http://www.inkscape.org/namespaces/inkscape"
   height="471pt"
   viewBox="-5 0 471 471.57908"
   width="471pt"
   version="1.1"
   id="svg6"
   sodipodi:docname="church.svg"
   inkscape:version="0.92.4 (5da689c313, 2019-01-14)">
  <metadata
     id="metadata12">
    <rdf:RDF>
      <cc:Work
         rdf:about="">
        <dc:format>image/svg+xml</dc:format>
        <dc:type
           rdf:resource="http://purl.org/dc/dcmitype/StillImage" />
        <dc:title></dc:title>
      </cc:Work>
    </rdf:RDF>
  </metadata>
  <defs
     id="defs10" />
  <sodipodi:namedview
     pagecolor="#ffffff"
     bordercolor="#666666"
     borderopacity="1"
     objecttolerance="10"
     gridtolerance="10"
     guidetolerance="10"
     inkscape:pageopacity="0"
     inkscape:pageshadow="2"
     inkscape:window-width="1920"
     inkscape:window-height="1017"
     id="namedview8"
     showgrid="false"
     inkscape:zoom="0.70710678"
     inkscape:cx="621.13361"
     inkscape:cy="296.55339"
     inkscape:window-x="-8"
     inkscape:window-y="-8"
     inkscape:window-maximized="1"
     inkscape:current-layer="svg6" />
  <g
     id="g4"
     transform="matrix(11.28269,0,0,11.282691,-39.642402,-55.151096)"
     style="fill:none;stroke:#ff6600;stroke-width:1.03992553;stroke-miterlimit:4;stroke-dasharray:none;stroke-opacity:1">
    <path
       style="color:#000000;font-style:normal;font-variant:normal;font-weight:normal;font-stretch:normal;font-size:medium;line-height:normal;font-family:sans-serif;font-variant-ligatures:normal;font-variant-position:normal;font-variant-caps:normal;font-variant-numeric:normal;font-variant-alternates:normal;font-feature-settings:normal;text-indent:0;text-align:start;text-decoration:none;text-decoration-line:none;text-decoration-style:solid;text-decoration-color:#000000;letter-spacing:normal;word-spacing:normal;text-transform:none;writing-mode:lr-tb;direction:ltr;text-orientation:mixed;dominant-baseline:auto;baseline-shift:baseline;text-anchor:start;white-space:normal;shape-padding:0;clip-rule:nonzero;display:inline;overflow:visible;visibility:visible;opacity:1;isolation:auto;mix-blend-mode:normal;color-interpolation:sRGB;color-interpolation-filters:linearRGB;solid-color:#000000;solid-opacity:1;vector-effect:none;fill:#ff6600;fill-opacity:1;fill-rule:nonzero;stroke:none;stroke-width:1.03992558;stroke-linecap:butt;stroke-linejoin:miter;stroke-miterlimit:4;stroke-dasharray:none;stroke-dashoffset:0;stroke-opacity:1;color-rendering:auto;image-rendering:auto;shape-rendering:auto;text-rendering:auto;enable-background:accumulate"
       d="m 23.085938,4.9511719 -1.871094,1.7597656 -6.337891,6.3554685 c -0.366698,0.368372 -0.463898,0.927716 -0.269531,1.396485 0.204373,0.494616 0.691772,0.787109 1.201172,0.787109 h 0.273437 v 5.279297 l -8.0624998,7.025391 c -0.9478641,0.826708 -1.2884162,2.123323 -0.8457031,3.304687 0.4539193,1.209231 1.6433642,1.853516 2.8730469,1.853516 h 0.02148 V 45.40625 c 0,0.758592 0.647461,1.291016 1.353516,1.291016 h 8.605469 v -8.556641 c 0,-1.706988 1.353433,-3.074219 3.058594,-3.074219 1.704193,0 3.05664,1.366091 3.05664,3.074219 v 8.554687 h 8.613281 c 0.706056,0 1.345703,-0.53618 1.345703,-1.289062 V 32.712891 h 0.0293 c 1.230521,0 2.419456,-0.64394 2.873047,-1.853516 0.443144,-1.182514 0.0981,-2.479545 -0.847656,-3.306641 h -0.002 l -8.0625,-7.023437 V 15.25 h 0.277344 c 0.510514,0 0.996993,-0.29468 1.201171,-0.787109 0.194204,-0.468374 0.09567,-1.029053 -0.273437,-1.396485 L 24.957031,6.7109375 Z m 0,1.4277343 1.146484,1.078125 6.332031,6.3457028 c 0.0729,0.07257 0.08872,0.156093 0.04492,0.261719 -0.03382,0.08157 -0.128748,0.146485 -0.240234,0.146485 h -1.31836 v 6.791015 l 8.419922,7.335938 c 0.647175,0.566824 0.857241,1.359321 0.558594,2.15625 -0.290409,0.774424 -1.010958,1.179687 -1.898438,1.179687 H 35.0625 V 45.40625 c 0,0.09712 -0.164696,0.25 -0.306641,0.25 h -7.572265 v -7.515625 c 0,-2.263872 -1.83185,-4.115234 -4.097656,-4.115234 -2.26684,0 -4.097657,1.852222 -4.097657,4.115234 v 7.515625 h -7.566406 c -0.141945,0 -0.3125,-0.158592 -0.3125,-0.25 V 31.671875 h -1.0625 c -0.8863173,0 -1.6103099,-0.404966 -1.9003906,-1.177734 -0.2992869,-0.798636 -0.091495,-1.590959 0.5566406,-2.15625 l 8.417969,-7.335938 v -6.791015 h -1.3125 c -0.112601,0 -0.206608,-0.06315 -0.240235,-0.144532 v -0.002 c -0.04363,-0.105232 -0.02638,-0.192044 0.04492,-0.263672 l 6.326172,-6.3437498 z m 0.0098,8.1835938 c -1.409936,0 -2.568359,1.152835 -2.568359,2.5625 v 3.466797 c 0,0.616423 0.534163,1.066406 1.107422,1.066406 h 2.955078 c 0.573429,0 1.076172,-0.485536 1.076172,-1.066406 V 17.125 c 0,-1.411029 -1.160683,-2.5625 -2.570313,-2.5625 z m 0,1.041016 c 0.848371,0 1.53125,0.676513 1.53125,1.521484 v 3.466797 c 0,0.04313 0.01746,0.02734 -0.03711,0.02734 h -2.955078 c -0.05274,0 -0.06641,-0.01977 -0.06641,-0.02734 V 17.125 c 0,-0.844335 0.679281,-1.521484 1.527344,-1.521484 z"
       id="path2-3"
       inkscape:connector-curvature="0" />
  </g>
</svg>
