<?xml version="1.0" encoding="UTF-8" standalone="no"?>
<!-- Generator: Adobe Illustrator 19.0.0, SVG Export Plug-In . SVG Version: 6.00 Build 0)  -->

<svg
   xmlns:dc="http://purl.org/dc/elements/1.1/"
   xmlns:cc="http://creativecommons.org/ns#"
   xmlns:rdf="http://www.w3.org/1999/02/22-rdf-syntax-ns#"
   xmlns:svg="http://www.w3.org/2000/svg"
   xmlns="http://www.w3.org/2000/svg"
   xmlns:sodipodi="http://sodipodi.sourceforge.net/DTD/sodipodi-0.dtd"
   xmlns:inkscape="http://www.inkscape.org/namespaces/inkscape"
   version="1.1"
   id="Capa_1"
   x="0px"
   y="0px"
   viewBox="0 0 332 332"
   style="enable-background:new 0 0 332 332;"
   xml:space="preserve"
   sodipodi:docname="hospital.svg"
   inkscape:version="0.92.3 (2405546, 2018-03-11)"><metadata
   id="metadata49"><rdf:RDF><cc:Work
       rdf:about=""><dc:format>image/svg+xml</dc:format><dc:type
         rdf:resource="http://purl.org/dc/dcmitype/StillImage" /><dc:title></dc:title></cc:Work></rdf:RDF></metadata><defs
   id="defs47" /><sodipodi:namedview
   pagecolor="#ffffff"
   bordercolor="#666666"
   borderopacity="1"
   objecttolerance="10"
   gridtolerance="10"
   guidetolerance="10"
   inkscape:pageopacity="0"
   inkscape:pageshadow="2"
   inkscape:window-width="806"
   inkscape:window-height="480"
   id="namedview45"
   showgrid="false"
   inkscape:zoom="0.71084337"
   inkscape:cx="166"
   inkscape:cy="166"
   inkscape:window-x="0"
   inkscape:window-y="0"
   inkscape:window-maximized="0"
   inkscape:current-layer="Capa_1" />
<g
   id="g6"
   style="fill:#ff5555">
	<g
   id="g4"
   style="fill:#ff5555">
		<path
   d="M166,0C74.4,0,0,74.4,0,166s74.4,166,166,166s166-74.4,166-166S257.6,0,166,0z M166,317.6c-83.6,0-151.6-68-151.6-151.6    S82.4,14.4,166,14.4s151.6,68,151.6,151.6S249.6,317.6,166,317.6z"
   id="path2"
   style="fill:#ff5555" />
	</g>
</g>
<g
   id="g12"
   style="fill:#ff5555;stroke:#ff5555">
	<g
   id="g10"
   style="fill:#ff5555;stroke:#ff5555">
		<path
   d="M252.4,130H202V79.6c0-4-3.2-7.2-7.2-7.2h-57.6c-4,0-7.2,3.2-7.2,7.2V130H79.6c-4,0-7.2,3.2-7.2,7.2v57.6    c0,4,3.2,7.2,7.2,7.2H130v50.4c0,4,3.2,7.2,7.2,7.2h57.6c4,0,7.2-3.2,7.2-7.2V202h50.4c4,0,7.2-3.2,7.2-7.2v-57.6    C259.2,133.2,256,130,252.4,130z M245.6,187.6h-0.4h-50.4c-4,0-7.2,3.2-7.2,7.2v50.4h-43.2v-50.4c0-4-3.2-7.2-7.2-7.2H86.8v-43.2    h50.4c4,0,7.2-3.2,7.2-7.2V86.8H188v50.4c0,4,3.2,7.2,7.2,7.2h50.4V187.6z"
   id="path8"
   style="fill:#ff5555;stroke:#ff5555" />
	</g>
</g>
<g
   id="g14">
</g>
<g
   id="g16">
</g>
<g
   id="g18">
</g>
<g
   id="g20">
</g>
<g
   id="g22">
</g>
<g
   id="g24">
</g>
<g
   id="g26">
</g>
<g
   id="g28">
</g>
<g
   id="g30">
</g>
<g
   id="g32">
</g>
<g
   id="g34">
</g>
<g
   id="g36">
</g>
<g
   id="g38">
</g>
<g
   id="g40">
</g>
<g
   id="g42">
</g>
</svg>