<?xml version="1.0" encoding="UTF-8" standalone="no"?>
<!-- Generator: Adobe Illustrator 19.0.0, SVG Export Plug-In . SVG Version: 6.00 Build 0)  -->

<svg
   xmlns:dc="http://purl.org/dc/elements/1.1/"
   xmlns:cc="http://creativecommons.org/ns#"
   xmlns:rdf="http://www.w3.org/1999/02/22-rdf-syntax-ns#"
   xmlns:svg="http://www.w3.org/2000/svg"
   xmlns="http://www.w3.org/2000/svg"
   xmlns:sodipodi="http://sodipodi.sourceforge.net/DTD/sodipodi-0.dtd"
   xmlns:inkscape="http://www.inkscape.org/namespaces/inkscape"
   version="1.1"
   id="Capa_1"
   x="0px"
   y="0px"
   viewBox="0 0 480 480"
   style="enable-background:new 0 0 480 480;"
   xml:space="preserve"
   sodipodi:docname="hotel.svg"
   inkscape:version="0.92.3 (2405546, 2018-03-11)"><metadata
   id="metadata253"><rdf:RDF><cc:Work
       rdf:about=""><dc:format>image/svg+xml</dc:format><dc:type
         rdf:resource="http://purl.org/dc/dcmitype/StillImage" /><dc:title></dc:title></cc:Work></rdf:RDF></metadata><defs
   id="defs251" /><sodipodi:namedview
   pagecolor="#ffffff"
   bordercolor="#666666"
   borderopacity="1"
   objecttolerance="10"
   gridtolerance="10"
   guidetolerance="10"
   inkscape:pageopacity="0"
   inkscape:pageshadow="2"
   inkscape:window-width="806"
   inkscape:window-height="480"
   id="namedview249"
   showgrid="false"
   inkscape:zoom="0.34766083"
   inkscape:cx="236.63013"
   inkscape:cy="262.26766"
   inkscape:window-x="0"
   inkscape:window-y="0"
   inkscape:window-maximized="0"
   inkscape:current-layer="Capa_1" />



































<g
   id="g1168"
   style="stroke:#6c535d;fill:#6c535d"><g
     id="g6"
     style="stroke:#6c535d;fill:#6c535d">
	<g
   id="g4"
   style="stroke:#6c535d;fill:#6c535d">
		<path
   id="path2"
   d="M472,76h-88V12c0-4.418-3.582-8-8-8H104c-4.418,0-8,3.582-8,8v112H8c-4.418,0-8,3.582-8,8v328c0,4.418,3.582,8,8,8    s8-3.582,8-8V140h80v328c0,4.418,3.582,8,8,8h272c4.418,0,8-3.582,8-8V92h80v368c0,4.418,3.582,8,8,8s8-3.582,8-8V84    C480,79.582,476.418,76,472,76z M232,460h-32v-72h32V460z M280,460h-32v-72h32V460z M368,460h-72v-80c0-4.418-3.582-8-8-8h-96    c-4.418,0-8,3.582-8,8v80h-72V20h256V460z"
   style="stroke:#6c535d;fill:#6c535d" />
	</g>
</g><g
     id="g12"
     style="stroke:#6c535d;fill:#6c535d">
	<g
   id="g10"
   style="stroke:#6c535d;fill:#6c535d">
		<path
   id="path8"
   d="M184,36h-48c-4.418,0-8,3.582-8,8v48c0,4.418,3.582,8,8,8h48c4.418,0,8-3.582,8-8V44C192,39.582,188.418,36,184,36z     M176,84h-32V52h32V84z"
   style="stroke:#6c535d;fill:#6c535d" />
	</g>
</g><g
     id="g18"
     style="stroke:#6c535d;fill:#6c535d">
	<g
   id="g16"
   style="stroke:#6c535d;fill:#6c535d">
		<path
   id="path14"
   d="M264,36h-48c-4.418,0-8,3.582-8,8v48c0,4.418,3.582,8,8,8h48c4.418,0,8-3.582,8-8V44C272,39.582,268.418,36,264,36z     M256,84h-32V52h32V84z"
   style="stroke:#6c535d;fill:#6c535d" />
	</g>
</g><g
     id="g24"
     style="stroke:#6c535d;fill:#6c535d">
	<g
   id="g22"
   style="stroke:#6c535d;fill:#6c535d">
		<path
   id="path20"
   d="M344,36h-48c-4.418,0-8,3.582-8,8v48c0,4.418,3.582,8,8,8h48c4.418,0,8-3.582,8-8V44C352,39.582,348.418,36,344,36z     M336,84h-32V52h32V84z"
   style="stroke:#6c535d;fill:#6c535d" />
	</g>
</g><g
     id="g30"
     style="stroke:#6c535d;fill:#6c535d">
	<g
   id="g28"
   style="stroke:#6c535d;fill:#6c535d">
		<path
   id="path26"
   d="M184,116h-48c-4.418,0-8,3.582-8,8v48c0,4.418,3.582,8,8,8h48c4.418,0,8-3.582,8-8v-48C192,119.582,188.418,116,184,116z     M176,164h-32v-32h32V164z"
   style="stroke:#6c535d;fill:#6c535d" />
	</g>
</g><g
     id="g36"
     style="stroke:#6c535d;fill:#6c535d">
	<g
   id="g34"
   style="stroke:#6c535d;fill:#6c535d">
		<path
   id="path32"
   d="M264,116h-48c-4.418,0-8,3.582-8,8v48c0,4.418,3.582,8,8,8h48c4.418,0,8-3.582,8-8v-48C272,119.582,268.418,116,264,116z     M256,164h-32v-32h32V164z"
   style="stroke:#6c535d;fill:#6c535d" />
	</g>
</g><g
     id="g42"
     style="stroke:#6c535d;fill:#6c535d">
	<g
   id="g40"
   style="stroke:#6c535d;fill:#6c535d">
		<path
   id="path38"
   d="M344,116h-48c-4.418,0-8,3.582-8,8v48c0,4.418,3.582,8,8,8h48c4.418,0,8-3.582,8-8v-48C352,119.582,348.418,116,344,116z     M336,164h-32v-32h32V164z"
   style="stroke:#6c535d;fill:#6c535d" />
	</g>
</g><g
     id="g48"
     style="stroke:#6c535d;fill:#6c535d">
	<g
   id="g46"
   style="stroke:#6c535d;fill:#6c535d">
		<path
   id="path44"
   d="M184,196h-48c-4.418,0-8,3.582-8,8v48c0,4.418,3.582,8,8,8h48c4.418,0,8-3.582,8-8v-48C192,199.582,188.418,196,184,196z     M176,244h-32v-32h32V244z"
   style="stroke:#6c535d;fill:#6c535d" />
	</g>
</g><g
     id="g54"
     style="stroke:#6c535d;fill:#6c535d">
	<g
   id="g52"
   style="stroke:#6c535d;fill:#6c535d">
		<path
   id="path50"
   d="M264,196h-48c-4.418,0-8,3.582-8,8v48c0,4.418,3.582,8,8,8h48c4.418,0,8-3.582,8-8v-48C272,199.582,268.418,196,264,196z     M256,244h-32v-32h32V244z"
   style="stroke:#6c535d;fill:#6c535d" />
	</g>
</g><g
     id="g60"
     style="stroke:#6c535d;fill:#6c535d">
	<g
   id="g58"
   style="stroke:#6c535d;fill:#6c535d">
		<path
   id="path56"
   d="M344,196h-48c-4.418,0-8,3.582-8,8v48c0,4.418,3.582,8,8,8h48c4.418,0,8-3.582,8-8v-48C352,199.582,348.418,196,344,196z     M336,244h-32v-32h32V244z"
   style="stroke:#6c535d;fill:#6c535d" />
	</g>
</g><g
     id="g66"
     style="stroke:#6c535d;fill:#6c535d">
	<g
   id="g64"
   style="stroke:#6c535d;fill:#6c535d">
		<path
   id="path62"
   d="M184,276h-48c-4.418,0-8,3.582-8,8v48c0,4.418,3.582,8,8,8h48c4.418,0,8-3.582,8-8v-48C192,279.582,188.418,276,184,276z     M176,324h-32v-32h32V324z"
   style="stroke:#6c535d;fill:#6c535d" />
	</g>
</g><g
     id="g72"
     style="stroke:#6c535d;fill:#6c535d">
	<g
   id="g70"
   style="stroke:#6c535d;fill:#6c535d">
		<path
   id="path68"
   d="M264,276h-48c-4.418,0-8,3.582-8,8v48c0,4.418,3.582,8,8,8h48c4.418,0,8-3.582,8-8v-48C272,279.582,268.418,276,264,276z     M256,324h-32v-32h32V324z"
   style="stroke:#6c535d;fill:#6c535d" />
	</g>
</g><g
     id="g78"
     style="stroke:#6c535d;fill:#6c535d">
	<g
   id="g76"
   style="stroke:#6c535d;fill:#6c535d">
		<path
   id="path74"
   d="M344,276h-48c-4.418,0-8,3.582-8,8v48c0,4.418,3.582,8,8,8h48c4.418,0,8-3.582,8-8v-48C352,279.582,348.418,276,344,276z     M336,324h-32v-32h32V324z"
   style="stroke:#6c535d;fill:#6c535d" />
	</g>
</g><g
     id="g84"
     style="stroke:#6c535d;fill:#6c535d">
	<g
   id="g82"
   style="stroke:#6c535d;fill:#6c535d">
		<path
   id="path80"
   d="M48,156h-8c-4.418,0-8,3.582-8,8v8c0,4.418,3.582,8,8,8h8c4.418,0,8-3.582,8-8v-8C56,159.582,52.418,156,48,156z"
   style="stroke:#6c535d;fill:#6c535d" />
	</g>
</g><g
     id="g90"
     style="stroke:#6c535d;fill:#6c535d">
	<g
   id="g88"
   style="stroke:#6c535d;fill:#6c535d">
		<path
   id="path86"
   d="M80,156h-8c-4.418,0-8,3.582-8,8v8c0,4.418,3.582,8,8,8h8c4.418,0,8-3.582,8-8v-8C88,159.582,84.418,156,80,156z"
   style="stroke:#6c535d;fill:#6c535d" />
	</g>
</g><g
     id="g96"
     style="stroke:#6c535d;fill:#6c535d">
	<g
   id="g94"
   style="stroke:#6c535d;fill:#6c535d">
		<path
   id="path92"
   d="M48,188h-8c-4.418,0-8,3.582-8,8v8c0,4.418,3.582,8,8,8h8c4.418,0,8-3.582,8-8v-8C56,191.582,52.418,188,48,188z"
   style="stroke:#6c535d;fill:#6c535d" />
	</g>
</g><g
     id="g102"
     style="stroke:#6c535d;fill:#6c535d">
	<g
   id="g100"
   style="stroke:#6c535d;fill:#6c535d">
		<path
   id="path98"
   d="M80,188h-8c-4.418,0-8,3.582-8,8v8c0,4.418,3.582,8,8,8h8c4.418,0,8-3.582,8-8v-8C88,191.582,84.418,188,80,188z"
   style="stroke:#6c535d;fill:#6c535d" />
	</g>
</g><g
     id="g108"
     style="stroke:#6c535d;fill:#6c535d">
	<g
   id="g106"
   style="stroke:#6c535d;fill:#6c535d">
		<path
   id="path104"
   d="M48,220h-8c-4.418,0-8,3.582-8,8v8c0,4.418,3.582,8,8,8h8c4.418,0,8-3.582,8-8v-8C56,223.582,52.418,220,48,220z"
   style="stroke:#6c535d;fill:#6c535d" />
	</g>
</g><g
     id="g114"
     style="stroke:#6c535d;fill:#6c535d">
	<g
   id="g112"
   style="stroke:#6c535d;fill:#6c535d">
		<path
   id="path110"
   d="M80,220h-8c-4.418,0-8,3.582-8,8v8c0,4.418,3.582,8,8,8h8c4.418,0,8-3.582,8-8v-8C88,223.582,84.418,220,80,220z"
   style="stroke:#6c535d;fill:#6c535d" />
	</g>
</g><g
     id="g120"
     style="stroke:#6c535d;fill:#6c535d">
	<g
   id="g118"
   style="stroke:#6c535d;fill:#6c535d">
		<path
   id="path116"
   d="M48,252h-8c-4.418,0-8,3.582-8,8v8c0,4.418,3.582,8,8,8h8c4.418,0,8-3.582,8-8v-8C56,255.582,52.418,252,48,252z"
   style="stroke:#6c535d;fill:#6c535d" />
	</g>
</g><g
     id="g126"
     style="stroke:#6c535d;fill:#6c535d">
	<g
   id="g124"
   style="stroke:#6c535d;fill:#6c535d">
		<path
   id="path122"
   d="M80,252h-8c-4.418,0-8,3.582-8,8v8c0,4.418,3.582,8,8,8h8c4.418,0,8-3.582,8-8v-8C88,255.582,84.418,252,80,252z"
   style="stroke:#6c535d;fill:#6c535d" />
	</g>
</g><g
     id="g132"
     style="stroke:#6c535d;fill:#6c535d">
	<g
   id="g130"
   style="stroke:#6c535d;fill:#6c535d">
		<path
   id="path128"
   d="M48,284h-8c-4.418,0-8,3.582-8,8v8c0,4.418,3.582,8,8,8h8c4.418,0,8-3.582,8-8v-8C56,287.582,52.418,284,48,284z"
   style="stroke:#6c535d;fill:#6c535d" />
	</g>
</g><g
     id="g138"
     style="stroke:#6c535d;fill:#6c535d">
	<g
   id="g136"
   style="stroke:#6c535d;fill:#6c535d">
		<path
   id="path134"
   d="M80,284h-8c-4.418,0-8,3.582-8,8v8c0,4.418,3.582,8,8,8h8c4.418,0,8-3.582,8-8v-8C88,287.582,84.418,284,80,284z"
   style="stroke:#6c535d;fill:#6c535d" />
	</g>
</g><g
     id="g144"
     style="stroke:#6c535d;fill:#6c535d">
	<g
   id="g142"
   style="stroke:#6c535d;fill:#6c535d">
		<path
   id="path140"
   d="M48,316h-8c-4.418,0-8,3.582-8,8v8c0,4.418,3.582,8,8,8h8c4.418,0,8-3.582,8-8v-8C56,319.582,52.418,316,48,316z"
   style="stroke:#6c535d;fill:#6c535d" />
	</g>
</g><g
     id="g150"
     style="stroke:#6c535d;fill:#6c535d">
	<g
   id="g148"
   style="stroke:#6c535d;fill:#6c535d">
		<path
   id="path146"
   d="M80,316h-8c-4.418,0-8,3.582-8,8v8c0,4.418,3.582,8,8,8h8c4.418,0,8-3.582,8-8v-8C88,319.582,84.418,316,80,316z"
   style="stroke:#6c535d;fill:#6c535d" />
	</g>
</g><g
     id="g156"
     style="stroke:#6c535d;fill:#6c535d">
	<g
   id="g154"
   style="stroke:#6c535d;fill:#6c535d">
		<path
   id="path152"
   d="M48,348h-8c-4.418,0-8,3.582-8,8v8c0,4.418,3.582,8,8,8h8c4.418,0,8-3.582,8-8v-8C56,351.582,52.418,348,48,348z"
   style="stroke:#6c535d;fill:#6c535d" />
	</g>
</g><g
     id="g162"
     style="stroke:#6c535d;fill:#6c535d">
	<g
   id="g160"
   style="stroke:#6c535d;fill:#6c535d">
		<path
   id="path158"
   d="M80,348h-8c-4.418,0-8,3.582-8,8v8c0,4.418,3.582,8,8,8h8c4.418,0,8-3.582,8-8v-8C88,351.582,84.418,348,80,348z"
   style="stroke:#6c535d;fill:#6c535d" />
	</g>
</g><g
     id="g168"
     style="stroke:#6c535d;fill:#6c535d">
	<g
   id="g166"
   style="stroke:#6c535d;fill:#6c535d">
		<path
   id="path164"
   d="M48,380h-8c-4.418,0-8,3.582-8,8v8c0,4.418,3.582,8,8,8h8c4.418,0,8-3.582,8-8v-8C56,383.582,52.418,380,48,380z"
   style="stroke:#6c535d;fill:#6c535d" />
	</g>
</g><g
     id="g174"
     style="stroke:#6c535d;fill:#6c535d">
	<g
   id="g172"
   style="stroke:#6c535d;fill:#6c535d">
		<path
   id="path170"
   d="M80,380h-8c-4.418,0-8,3.582-8,8v8c0,4.418,3.582,8,8,8h8c4.418,0,8-3.582,8-8v-8C88,383.582,84.418,380,80,380z"
   style="stroke:#6c535d;fill:#6c535d" />
	</g>
</g><g
     id="g180"
     style="stroke:#6c535d;fill:#6c535d">
	<g
   id="g178"
   style="stroke:#6c535d;fill:#6c535d">
		<path
   id="path176"
   d="M48,412h-8c-4.418,0-8,3.582-8,8v8c0,4.418,3.582,8,8,8h8c4.418,0,8-3.582,8-8v-8C56,415.582,52.418,412,48,412z"
   style="stroke:#6c535d;fill:#6c535d" />
	</g>
</g><g
     id="g186"
     style="stroke:#6c535d;fill:#6c535d">
	<g
   id="g184"
   style="stroke:#6c535d;fill:#6c535d">
		<path
   id="path182"
   d="M80,412h-8c-4.418,0-8,3.582-8,8v8c0,4.418,3.582,8,8,8h8c4.418,0,8-3.582,8-8v-8C88,415.582,84.418,412,80,412z"
   style="stroke:#6c535d;fill:#6c535d" />
	</g>
</g><g
     id="g192"
     style="stroke:#6c535d;fill:#6c535d">
	<g
   id="g190"
   style="stroke:#6c535d;fill:#6c535d">
		<path
   id="path188"
   d="M440,108h-32c-4.418,0-8,3.582-8,8v32c0,4.418,3.582,8,8,8h32c4.418,0,8-3.582,8-8v-32C448,111.582,444.418,108,440,108z     M432,140h-16v-16h16V140z"
   style="stroke:#6c535d;fill:#6c535d" />
	</g>
</g><g
     id="g198"
     style="stroke:#6c535d;fill:#6c535d">
	<g
   id="g196"
   style="stroke:#6c535d;fill:#6c535d">
		<path
   id="path194"
   d="M440,172h-32c-4.418,0-8,3.582-8,8v32c0,4.418,3.582,8,8,8h32c4.418,0,8-3.582,8-8v-32C448,175.582,444.418,172,440,172z     M432,204h-16v-16h16V204z"
   style="stroke:#6c535d;fill:#6c535d" />
	</g>
</g><g
     id="g204"
     style="stroke:#6c535d;fill:#6c535d">
	<g
   id="g202"
   style="stroke:#6c535d;fill:#6c535d">
		<path
   id="path200"
   d="M440,236h-32c-4.418,0-8,3.582-8,8v32c0,4.418,3.582,8,8,8h32c4.418,0,8-3.582,8-8v-32C448,239.582,444.418,236,440,236z     M432,268h-16v-16h16V268z"
   style="stroke:#6c535d;fill:#6c535d" />
	</g>
</g><g
     id="g210"
     style="stroke:#6c535d;fill:#6c535d">
	<g
   id="g208"
   style="stroke:#6c535d;fill:#6c535d">
		<path
   id="path206"
   d="M440,300h-32c-4.418,0-8,3.582-8,8v32c0,4.418,3.582,8,8,8h32c4.418,0,8-3.582,8-8v-32C448,303.582,444.418,300,440,300z     M432,332h-16v-16h16V332z"
   style="stroke:#6c535d;fill:#6c535d" />
	</g>
</g><g
     id="g216"
     style="stroke:#6c535d;fill:#6c535d">
	<g
   id="g214"
   style="stroke:#6c535d;fill:#6c535d">
		<path
   id="path212"
   d="M440,364h-32c-4.418,0-8,3.582-8,8v32c0,4.418,3.582,8,8,8h32c4.418,0,8-3.582,8-8v-32C448,367.582,444.418,364,440,364z     M432,396h-16v-16h16V396z"
   style="stroke:#6c535d;fill:#6c535d" />
	</g>
</g></g>
<g
   id="g218">
</g>
<g
   id="g220">
</g>
<g
   id="g222">
</g>
<g
   id="g224">
</g>
<g
   id="g226">
</g>
<g
   id="g228">
</g>
<g
   id="g230">
</g>
<g
   id="g232">
</g>
<g
   id="g234">
</g>
<g
   id="g236">
</g>
<g
   id="g238">
</g>
<g
   id="g240">
</g>
<g
   id="g242">
</g>
<g
   id="g244">
</g>
<g
   id="g246">
</g>
</svg>