<?xml version="1.0" encoding="UTF-8" standalone="no"?>
<!-- Generator: Adobe Illustrator 19.0.0, SVG Export Plug-In . SVG Version: 6.00 Build 0)  -->

<svg
   xmlns:dc="http://purl.org/dc/elements/1.1/"
   xmlns:cc="http://creativecommons.org/ns#"
   xmlns:rdf="http://www.w3.org/1999/02/22-rdf-syntax-ns#"
   xmlns:svg="http://www.w3.org/2000/svg"
   xmlns="http://www.w3.org/2000/svg"
   xmlns:sodipodi="http://sodipodi.sourceforge.net/DTD/sodipodi-0.dtd"
   xmlns:inkscape="http://www.inkscape.org/namespaces/inkscape"
   version="1.1"
   id="Capa_1"
   x="0px"
   y="0px"
   viewBox="0 0 512 512"
   style="enable-background:new 0 0 512 512;"
   xml:space="preserve"
   sodipodi:docname="medicine.svg"
   inkscape:version="0.92.3 (2405546, 2018-03-11)"><metadata
   id="metadata55"><rdf:RDF><cc:Work
       rdf:about=""><dc:format>image/svg+xml</dc:format><dc:type
         rdf:resource="http://purl.org/dc/dcmitype/StillImage" /><dc:title></dc:title></cc:Work></rdf:RDF></metadata><defs
   id="defs53" /><sodipodi:namedview
   pagecolor="#ffffff"
   bordercolor="#666666"
   borderopacity="1"
   objecttolerance="10"
   gridtolerance="10"
   guidetolerance="10"
   inkscape:pageopacity="0"
   inkscape:pageshadow="2"
   inkscape:window-width="1920"
   inkscape:window-height="1018"
   id="namedview51"
   showgrid="false"
   showguides="true"
   inkscape:guide-bbox="true"
   inkscape:zoom="1.3037281"
   inkscape:cx="278.55709"
   inkscape:cy="317.47653"
   inkscape:window-x="-8"
   inkscape:window-y="-8"
   inkscape:window-maximized="1"
   inkscape:current-layer="Capa_1"><sodipodi:guide
     position="116.47458,369.76271"
     orientation="0,1"
     id="guide862"
     inkscape:locked="false" /></sodipodi:namedview>


<g
   id="g870"
   style="fill:#aa0000"><g
     id="g12"
     style="fill:#aa0000">
	<g
   id="g10"
   style="fill:#aa0000">
		<path
   id="path8"
   d="M215.691,312.984h-29.998v-29.998c0-5.522-4.478-10-10-10s-9.999,4.478-9.999,10v29.998h-29.998    c-5.522,0-10,4.478-10,9.999s4.478,10,10,10h29.998v29.998c0,5.522,4.478,10,9.999,10s10-4.478,10-10v-29.998h29.998    c5.522,0,10-4.478,10-10S221.214,312.984,215.691,312.984z"
   style="fill:#aa0000" />
	</g>
</g><g
     id="g18"
     style="fill:#aa0000">
	<g
   style="stroke:#c83737;fill:#aa0000"
   id="g16">
		<path
   style="stroke:#c83737;fill:#aa0000"
   sodipodi:nodetypes="cccscccscsssscccssscccccsssssssccccsccsscccccscccccccccccccccccccccccc"
   inkscape:connector-curvature="0"
   id="path14"
   d="M 485.578,321.984 C 463.473,283.698 414.597,270.595 376.304,292.705 l -40.618,23.45 v -86.836 c 0,-10.735 -3.55,-21.388 -9.999,-29.998 L 275.69,132.66 v -28.386 c 11.638,-4.128 19.999,-15.242 19.999,-28.279 V 29.998 C 295.687,13.457 282.23,0 265.689,0 H 85.698 C 69.157,0 55.699,13.457 55.699,29.998 v 45.998 c 0,13.035 8.361,24.151 19.999,28.279 v 28.386 l -50.001,66.665 c -6.446,8.606 -9.996,19.258 -9.996,29.993 v 193.66 c 0,27.569 22.429,49.997 49.997,49.997 H 226.4 c 22.421,37.583 70.767,50.161 108.664,28.279 L 456.3,431.258 c 37.955,-21.918 51.494,-70.779 29.278,-109.274 z M 75.698,29.998 c 0,-5.514 4.486,-10 9.999,-10 h 179.991 c 5.514,0 10,4.486 10,10 v 45.998 c 0,5.514 -4.486,9.999 -10,9.999 H 85.698 c -5.514,0 -9.999,-4.486 -9.999,-9.999 V 29.998 Z M 41.701,211.319 93.697,141.993 c 1.298,-1.73 2,-3.836 2,-6 v -29.998 h 159.992 l 0.27119,30.30408 c 0.0188,2.10489 0.0308,4.09376 0.79661,5.93821 11.12373,26.78994 52.9252,69.07871 52.9252,69.07871 3.202,4.275 5.191,9.39 5.792,14.674 H 35.913 c 0.6,-5.285 2.589,-10.4 5.788,-14.671 z m 23.998,241.658 c -16.541,0 -29.998,-13.457 -29.998,-29.998 V 412.88 h 181.675 c -3.171,12.965 -3.15,26.813 0.481,40.098 H 65.699 Z M 225.219,392.98 H 35.7 V 245.987 H 315.686 V 327.7 l -60.619,35.002 c -12.639,7.301 -22.855,17.694 -29.848,30.278 z m 99.847,90.955 c -28.697,16.571 -65.367,6.771 -81.949,-21.946 -16.661,-28.994 -6.564,-65.498 21.952,-81.969 l 54.277,-31.338 59.997,103.915 z M 446.3,413.939 396.663,442.598 336.665,338.681 386.303,310.025 c 28.716,-16.578 65.373,-6.761 81.955,21.957 16.655,28.862 6.527,65.508 -21.958,81.957 z" />
	</g>
</g></g>
<g
   id="g20">
</g>
<g
   id="g22">
</g>
<g
   id="g24">
</g>
<g
   id="g26">
</g>
<g
   id="g28">
</g>
<g
   id="g30">
</g>
<g
   id="g32">
</g>
<g
   id="g34">
</g>
<g
   id="g36">
</g>
<g
   id="g38">
</g>
<g
   id="g40">
</g>
<g
   id="g42">
</g>
<g
   id="g44">
</g>
<g
   id="g46">
</g>
<g
   id="g48">
</g>
</svg>