<?xml version="1.0" encoding="UTF-8" standalone="no"?>
<svg
   xmlns:dc="http://purl.org/dc/elements/1.1/"
   xmlns:cc="http://creativecommons.org/ns#"
   xmlns:rdf="http://www.w3.org/1999/02/22-rdf-syntax-ns#"
   xmlns:svg="http://www.w3.org/2000/svg"
   xmlns="http://www.w3.org/2000/svg"
   xmlns:sodipodi="http://sodipodi.sourceforge.net/DTD/sodipodi-0.dtd"
   xmlns:inkscape="http://www.inkscape.org/namespaces/inkscape"
   height="471pt"
   viewBox="-5 0 471 471.57908"
   width="471pt"
   version="1.1"
   id="svg6"
   sodipodi:docname="refugio.svg"
   inkscape:version="0.92.3 (2405546, 2018-03-11)">
  <metadata
     id="metadata12">
    <rdf:RDF>
      <cc:Work
         rdf:about="">
        <dc:format>image/svg+xml</dc:format>
        <dc:type
           rdf:resource="http://purl.org/dc/dcmitype/StillImage" />
        <dc:title></dc:title>
      </cc:Work>
    </rdf:RDF>
  </metadata>
  <defs
     id="defs10" />
  <sodipodi:namedview
     pagecolor="#ffffff"
     bordercolor="#666666"
     borderopacity="1"
     objecttolerance="10"
     gridtolerance="10"
     guidetolerance="10"
     inkscape:pageopacity="0"
     inkscape:pageshadow="2"
     inkscape:window-width="1920"
     inkscape:window-height="1018"
     id="namedview8"
     showgrid="false"
     inkscape:zoom="0.37579618"
     inkscape:cx="314"
     inkscape:cy="314"
     inkscape:window-x="-8"
     inkscape:window-y="-8"
     inkscape:window-maximized="1"
     inkscape:current-layer="svg6" />
  <g
     id="g824"
     style="fill:#2ca089">
    <path
       style="fill:#2ca089"
       id="path2"
       d="m456.242188 48.605469-97.222657-47.789063c-2.210937-1.089844-4.800781-1.089844-7.007812 0l-97.136719 47.660156c-2.699219 1.363282-4.375 4.15625-4.308594 7.179688v67.175781l-40.554687-32.246093c-2.949219-2.335938-7.113281-2.335938-10.058594 0l-196.632813 156.921874c-1.734374 1.371094-2.820312 3.402344-3.003906 5.605469s.558594 4.382813 2.042969 6.023438l39.226563 43.199219c1.515624 1.671874 3.664062 2.625 5.921874 2.621093 1.742188 0 3.425782-.621093 4.746094-1.757812l12.3125-10.066407v170.027344c.203125 4.59375 3.90625 8.261719 8.5 8.417969h263.59375c4.421875 0 7.90625-4 7.90625-8.417969v-170.027344l12.613282 10.066407c3.304687 2.640625 8.097656 2.261719 10.949218-.863281l39.242188-43.203126c1.484375-1.632812 2.230468-3.8125 2.054687-6.015624-.175781-2.203126-1.253906-4.234376-2.980469-5.613282l-14.714843-11.746094 32.136719-22.019531c21.007812-14.320312 36.699218-44.28125 36.699218-69.691406v-88.261719c.0625-3.023437-1.621094-5.816406-4.324218-7.179687zm-207.675782 406.972656h-87v-103h87zm80 0h-64v-111.160156c0-4.417969-4.0625-7.839844-8.484375-7.839844h-102.433593c-2.113282-.039063-4.15625.765625-5.671876 2.238281-1.515624 1.472656-2.382812 3.488282-2.410156 5.601563v111.160156h-65v-175.261719l124-99.175781 124 99.175781zm61.238282-200.886719-28.445313 31.320313-151.492187-121.367188c-2.921876-2.339843-7.078126-2.339843-10 0l-151.5 121.367188-28.441407-31.320313 185.097657-147.621094 45.542968 36.234376v.742187c0 25.410156 15.6875 55.371094 36.691406 69.691406l63.875 43.617188c2.695313 1.851562 6.257813 1.851562 8.957032 0l17.820312-12.164063zm54.761718-110.644531c0 19.914063-13.246094 45.25-29.710937 56.472656l-59.371094 40.542969-59.25-40.542969c-16.464844-11.226562-29.667969-36.558593-29.667969-56.472656v-83.398437l89-43.742188 89 43.863281zm0 0" />
    <path
       id="path4"
       d="m324.171875 123.199219c-2.003906-2.066407-4.960937-2.894531-7.746094-2.171875-2.785156.71875-4.96875 2.882812-5.71875 5.660156-.746093 2.777344.054688 5.746094 2.097657 7.769531l24.914062 24.953125c1.519531 1.460938 3.5625 2.242188 5.664062 2.167969h.019532c2.097656.074219 4.136718-.695313 5.65625-2.140625l49.230468-49.125c2.070313-2.007812 2.894532-4.976562 2.152344-7.765625-.738281-2.789063-2.925781-4.957031-5.714844-5.679687-2.792968-.71875-5.757812.128906-7.75 2.210937l-43.546874 43.558594zm0 0"
       style="fill:#2ca089" />
  </g>
</svg>
