<?xml version="1.0" encoding="UTF-8" standalone="no"?>
<!-- Generator: Adobe Illustrator 19.0.0, SVG Export Plug-In . SVG Version: 6.00 Build 0)  -->

<svg
   xmlns:dc="http://purl.org/dc/elements/1.1/"
   xmlns:cc="http://creativecommons.org/ns#"
   xmlns:rdf="http://www.w3.org/1999/02/22-rdf-syntax-ns#"
   xmlns:svg="http://www.w3.org/2000/svg"
   xmlns="http://www.w3.org/2000/svg"
   xmlns:sodipodi="http://sodipodi.sourceforge.net/DTD/sodipodi-0.dtd"
   xmlns:inkscape="http://www.inkscape.org/namespaces/inkscape"
   version="1.1"
   id="Capa_1"
   x="0px"
   y="0px"
   viewBox="0 0 470 470"
   style="enable-background:new 0 0 470 470;"
   xml:space="preserve"
   sodipodi:docname="shelter.svg"
   inkscape:version="0.92.4 (5da689c313, 2019-01-14)"><metadata
   id="metadata43"><rdf:RDF><cc:Work
       rdf:about=""><dc:format>image/svg+xml</dc:format><dc:type
         rdf:resource="http://purl.org/dc/dcmitype/StillImage" /><dc:title /></cc:Work></rdf:RDF></metadata><defs
   id="defs41" /><sodipodi:namedview
   pagecolor="#ffffff"
   bordercolor="#666666"
   borderopacity="1"
   objecttolerance="10"
   gridtolerance="10"
   guidetolerance="10"
   inkscape:pageopacity="0"
   inkscape:pageshadow="2"
   inkscape:window-width="1920"
   inkscape:window-height="1017"
   id="namedview39"
   showgrid="false"
   inkscape:zoom="1.0042553"
   inkscape:cx="640.95284"
   inkscape:cy="260.47342"
   inkscape:window-x="-8"
   inkscape:window-y="-8"
   inkscape:window-maximized="1"
   inkscape:current-layer="g6"
   inkscape:snap-global="false" />
<g
   id="g3802"
   transform="matrix(6.2654456,0,0,6.2654456,41.250285,6.6243891)" /><g
   id="g6"
   transform="matrix(0.79281699,0,0,0.71306424,243.78545,321.56532)">
	
	
<path
   id="path1479"
   style="color:#000000;font-style:normal;font-variant:normal;font-weight:normal;font-stretch:normal;font-size:medium;line-height:normal;font-family:sans-serif;font-variant-ligatures:normal;font-variant-position:normal;font-variant-caps:normal;font-variant-numeric:normal;font-variant-alternates:normal;font-feature-settings:normal;text-indent:0;text-align:start;text-decoration:none;text-decoration-line:none;text-decoration-style:solid;text-decoration-color:#000000;letter-spacing:normal;word-spacing:normal;text-transform:none;writing-mode:lr-tb;direction:ltr;text-orientation:mixed;dominant-baseline:auto;baseline-shift:baseline;text-anchor:start;white-space:normal;shape-padding:0;clip-rule:nonzero;display:inline;overflow:visible;visibility:visible;opacity:1;isolation:auto;mix-blend-mode:normal;color-interpolation:sRGB;color-interpolation-filters:linearRGB;solid-color:#000000;solid-opacity:1;vector-effect:none;fill:#d400aa;fill-opacity:1;fill-rule:nonzero;stroke:none;stroke-width:27.33307076;stroke-linecap:round;stroke-linejoin:miter;stroke-miterlimit:4;stroke-dasharray:none;stroke-dashoffset:0;stroke-opacity:1;color-rendering:auto;image-rendering:auto;shape-rendering:auto;text-rendering:auto;enable-background:accumulate"
   d="m 47.656372,-370.30585 c -11.60334,0.55156 -17.272542,14.40947 -9.382813,22.93554 l 86.674811,97.06565 c 5.02137,5.72612 13.75434,6.24351 19.41671,1.15037 5.66238,-5.09314 6.06967,-13.83194 0.90556,-19.42967 L 58.595825,-365.6496 c -2.745098,-3.13982 -6.773548,-4.85449 -10.939453,-4.65625 z m 86.648318,-0.69806 c -11.60335,0.55155 -17.27255,14.40948 -9.38281,22.93555 l 39.06054,43.42969 c 5.03266,5.67811 13.72702,6.17034 19.36841,1.09657 5.64139,-5.07378 6.07045,-13.7715 0.95581,-19.37587 l -39.0625,-43.42969 c -2.7451,-3.13982 -6.77355,-4.85449 -10.93945,-4.65625 z m -119.921878,64.76172 c -11.6003829,0.55447 -17.2671732,14.4082 -9.3808589,22.9336 l 24.1652179,27.24547 c 5.032575,5.67845 13.727212,6.17086 19.368748,1.09695 5.641535,-5.07391 6.070452,-13.77191 0.955471,-19.37624 l -24.167171,-27.24353 c -2.745532,-3.14038 -6.77483,-4.85509 -10.941407,-4.65625 z m 85.124192,455.04225 c -4.460996,-2.48497 -9.006513,-3.51599 -14.097821,-3.51599 H -14.820092 c 2.496906,-4.44373 3.833105,-9.47244 3.833105,-14.70948 0,-8.04079 -2.848437,-15.97049 -8.816654,-21.28579 L -102.85448,35.323616 c -12.93616,-11.520963 -35.6289,-21.977493 -53.05695,-21.976467 h -104.83619 c -4.25181,0 -7.69699,3.446202 -7.69699,7.696997 0,4.250796 3.44518,7.696998 7.69699,7.696998 h 104.83516 c 13.39073,0 32.703,7.99872 42.17134,17.468079 l 83.050845,73.965187 c 2.77913,2.77811 4.308267,6.47267 4.308267,10.40121 0,3.92957 -1.529137,7.62311 -4.308267,10.40121 -5.735801,5.7358 -14.297458,4.60699 -20.801392,0 L -119.54402,92.772679 c -3.4097,-2.415226 -7.87865,-3.00696 -10.88561,0 -3.00593,3.005934 -3.00593,7.879671 0,10.884581 l 68.052357,48.20415 c 5.736828,5.73581 13.227546,8.66066 20.761368,8.78997 0.174465,0.0112 0.347904,0.0267 0.525447,0.0267 H 85.409183 c 8.110582,0 14.709477,6.5989 14.709477,14.70948 0,8.11058 -6.598895,14.70844 -14.702293,14.70844 l -141.259403,-0.1252 c -3.766397,-0.003 -10.155931,-1.66768 -13.513875,-3.5088 L -212.93362,97.799757 c -0.0893,-0.05541 -0.17959,-0.108783 -0.27196,-0.160097 -5.62086,-3.160901 -14.72384,-5.54389 -21.17392,-5.54389 h -28.14434 c -4.25181,0 -7.69699,3.446202 -7.69699,7.697 0,4.25079 3.44518,7.69699 7.69699,7.69699 h 28.14536 c 3.76538,0 10.15081,1.65947 13.5067,3.5006 l 143.576699,88.66324 c 0.08929,0.0555 0.180623,0.1088 0.271961,0.1601 5.62086,3.15988 14.720764,5.54697 21.166743,5.55211 l 141.26556,0.12417 c 16.598827,0 30.103477,-13.50464 30.103477,-30.10346 0,-5.61779 -1.50499,-10.73972 -4.24156,-15.38374 -2.73657,-4.64402 -7.3031,-8.71775 -11.764096,-11.20272 z M -27.123326,-212.92905 H 216.18689 V -411.31279 H -27.123326 Z M -10.902644,-393.2779 H 199.96622 v 162.31396 H -10.902644 Z m -8.109076,-54.10352 c -22.360205,0 -40.552858,20.2246 -40.552858,45.08568 v 1.14689 c -5.158186,-1.2985 -10.217966,-2.88765 -14.994961,-5.08791 -14.055223,-6.47452 -26.335191,-16.44813 -35.524211,-28.83808 l -6.25233,-8.45832 -6.25484,8.44988 c -9.18901,12.39898 -21.45834,22.36356 -35.52168,28.83809 -14.07955,6.48355 -29.11008,9.09913 -43.46539,7.53911 l -9.80448,-1.05412 0.94809,10.90107 c 1.39497,15.97891 -0.94687,32.68831 -6.7782,48.31553 -5.82322,15.63625 -14.79355,29.29869 -25.93715,39.49744 l -7.59988,6.96003 7.60746,6.96285 c 11.14362,10.19874 20.11393,23.85837 25.93715,39.49462 5.83134,15.62723 8.1757,32.33662 6.78073,48.31552 l -0.95062,10.90389 9.807,-1.06537 c 14.34721,-1.56002 29.38386,1.06459 43.45529,7.53912 9.55398,4.4005 18.16742,10.41319 25.74247,17.89767 l -57.86114,43.08706 c -9.59454,7.15083 -15.31858,19.08093 -15.31858,31.921775 0,20.379411 14.38617,36.935223 32.43978,38.170619 v 42.7694288 c 5.40704,4.2994099 10.8141,4.6576928 16.22114,0 V -50.641931 c 7.0641,-0.06318 13.85307,-2.472057 19.65196,-7.007831 l 124.378975,-97.631808 c 5.9205415,-4.64397 14.2178726,-4.64397 20.1222079,0 L 131.66089,-57.649762 c 5.87189,4.598898 12.75799,7.03594 19.92753,7.03594 h -0.28316 V 93.66378 H 53.980906 V -40.037849 c 0,-14.914856 -10.917205,-27.053112 -24.331712,-27.053112 h -64.882059 c -13.414509,0 -24.331713,12.138256 -24.331713,27.053112 v 95.829062 c 4.951331,7.195709 12.636979,6.031053 16.221145,1.066214 v -96.895276 c 0,-4.96861 3.633667,-9.017709 8.110568,-9.017709 H 5.3174682 29.649194 c 4.4769,0 8.110566,4.049099 8.110566,9.017709 V 93.66378 H 5.3174682 -8.8714728 c -3.8565192,7.53188 -3.6115452,12.0236 0.5070383,18.03539 H 216.18732 V 93.66378 H 167.52388 V -50.613822 h -2.10855 c 19.05119,0 34.55085,-17.233202 34.55085,-38.415173 0,-12.840845 -5.72658,-24.770945 -15.3211,-31.921775 l -75.0759,-55.90805 h 98.50756 c 22.36021,0 40.55034,-20.22743 40.55034,-45.08852 v -180.3484 c 0,-24.86108 -18.19013,-45.08568 -40.55034,-45.08568 z m 0,18.03258 h 227.08846 c 13.41451,0 24.33173,12.13826 24.33173,27.0531 v 180.3484 c 0,14.91486 -10.91722,27.05312 -24.33173,27.05312 H -19.01172 c -13.414508,0 -24.331713,-12.13826 -24.331713,-27.05312 v -180.3484 c 0,-14.91484 10.917205,-27.0531 24.331713,-27.0531 z m -97.32436,13.42817 c 9.92707,11.10949 22.066009,20.11708 35.569731,26.33911 6.747802,3.11102 13.853793,5.45566 21.201771,7.0247 v 37.5775 c -13.390172,-18.43164 -33.85167,-30.26327 -56.771502,-30.26327 -40.25161,0 -72.99515,36.41195 -72.99515,81.1565 0,44.74454 32.74354,81.15651 72.99515,81.15651 22.919832,0 43.38133,-11.83164 56.771502,-30.26328 v 21.24556 c 0,1.18128 0.234917,2.29992 0.316028,3.46317 l -59.38315,44.2227 c -9.62698,-10.29791 -20.72991,-18.54905 -33.2766,-24.32922 -13.51995,-6.22204 -28.13612,-9.56923 -41.91559,-9.34379 0.0568,-15.65428 -2.80519,-31.57835 -8.40132,-46.59238 -5.58803,-15.03209 -13.69962,-28.53094 -23.69967,-39.55927 9.99194,-11.02834 18.10352,-24.52777 23.69967,-39.55082 5.59613,-15.02307 8.45808,-30.93812 8.40132,-46.5924 h 0.37417 c 13.95791,0 28.14313,-3.17585 41.54142,-9.34377 13.5037,-6.23106 25.64518,-15.23806 35.57222,-26.34755 z m 0,58.71345 c 31.29782,0 56.771502,28.31376 56.771502,63.12109 0,34.80732 -25.473682,63.1211 -56.771502,63.1211 -31.29779,0 -56.77399,-28.31378 -56.77399,-63.1211 0,-34.80733 25.4762,-63.12109 56.77399,-63.12109 z m 61.929092,156.82029 c 6.91001,13.94998 20.099166,23.52811 35.395268,23.52811 h 99.422781 l 95.208219,70.90475 c 5.09329,3.78735 8.12575,10.11689 8.12575,16.925075 0,11.235727 -8.22421,20.37977 -18.3297,20.37977 h -13.82691 c -3.80374,0 -7.46935,-1.28928 -10.5756,-3.733012 L 16.623734,-170.00561 c -11.4193623,-8.96334 -27.395558,-8.96334 -38.831141,0 L -146.5889,-72.382237 c -3.11438,2.443732 -6.77945,3.733012 -10.58319,3.733012 h -13.82943 c -10.1055,0 -18.32971,-9.144043 -18.32971,-20.37977 0,-6.808185 3.03499,-13.146765 8.12827,-16.925075 z" /></g>
<g
   id="g8">
</g>
<g
   id="g10">
</g>
<g
   id="g12">
</g>
<g
   id="g14">
</g>
<g
   id="g16">
</g>
<g
   id="g18">
</g>
<g
   id="g20">
</g>
<g
   id="g22">
</g>
<g
   id="g24">
</g>
<g
   id="g26">
</g>
<g
   id="g28">
</g>
<g
   id="g30">
</g>
<g
   id="g32">
</g>
<g
   id="g34">
</g>
<g
   id="g36">
</g>
</svg>