<?xml version="1.0" encoding="UTF-8" standalone="no"?>
<!-- Generator: Adobe Illustrator 19.0.0, SVG Export Plug-In . SVG Version: 6.00 Build 0)  -->

<svg
   xmlns:dc="http://purl.org/dc/elements/1.1/"
   xmlns:cc="http://creativecommons.org/ns#"
   xmlns:rdf="http://www.w3.org/1999/02/22-rdf-syntax-ns#"
   xmlns:svg="http://www.w3.org/2000/svg"
   xmlns="http://www.w3.org/2000/svg"
   xmlns:sodipodi="http://sodipodi.sourceforge.net/DTD/sodipodi-0.dtd"
   xmlns:inkscape="http://www.inkscape.org/namespaces/inkscape"
   version="1.1"
   id="Capa_1"
   x="0px"
   y="0px"
   viewBox="0 0 470 470"
   style="enable-background:new 0 0 470 470;"
   xml:space="preserve"
   sodipodi:docname="shelter.svg"
   inkscape:version="0.92.4 (5da689c313, 2019-01-14)"><metadata
   id="metadata43"><rdf:RDF><cc:Work
       rdf:about=""><dc:format>image/svg+xml</dc:format><dc:type
         rdf:resource="http://purl.org/dc/dcmitype/StillImage" /><dc:title /></cc:Work></rdf:RDF></metadata><defs
   id="defs41" /><sodipodi:namedview
   pagecolor="#ffffff"
   bordercolor="#666666"
   borderopacity="1"
   objecttolerance="10"
   gridtolerance="10"
   guidetolerance="10"
   inkscape:pageopacity="0"
   inkscape:pageshadow="2"
   inkscape:window-width="1920"
   inkscape:window-height="1017"
   id="namedview39"
   showgrid="false"
   inkscape:zoom="1.4202315"
   inkscape:cx="187.5556"
   inkscape:cy="203.6146"
   inkscape:window-x="-8"
   inkscape:window-y="-8"
   inkscape:window-maximized="1"
   inkscape:current-layer="g6" />
<g
   id="g3802"
   transform="matrix(6.2654456,0,0,6.2654456,41.250285,6.6243891)" /><g
   id="g6"
   transform="matrix(0.79281699,0,0,0.71306424,243.78545,321.56532)">
	
	
<path
   id="path2"
   style="fill:#d400aa;stroke:none;stroke-width:1.32999252;stroke-miterlimit:4;stroke-dasharray:none"
   d="m 112.70281,138.33434 c 0,-16.174 -13.159004,-25.84186 -29.333004,-25.84186 h -72.108 c -4.1429997,0 -7.4999997,3.358 -7.4999997,7.5 0,4.142 3.357,7.5 7.4999997,7.5 h 72.108 c 7.903,0 14.333,2.93886 14.333,10.84186 0,1.403 -0.205,2.779 -0.596,4.094 -4.101,-2.183 -8.776,-3.426 -13.737,-3.426 h -97.664 c 2.433,-4.33 3.735,-9.23 3.735,-14.333 0,-7.835 -3.051,-15.201 -8.591,-20.741 L -101.80619,21.272345 c -12.008,-12.0080004 -34.717,-21.41500058 -51.699,-21.41400058 h -102.153 c -4.143,0 -7.5,3.35799998 -7.5,7.50000018 0,4.1420004 3.357,7.5000004 7.5,7.5000004 h 102.152 c 13.048,0 31.866,7.794 41.092,17.021 l 82.655996,82.655995 c 2.708,2.707 4.198,6.307 4.198,10.135 0,3.829 -1.49,7.428 -4.198,10.135 -5.589,5.589 -14.682,5.587 -20.269,0 L -117.20319,67.629345 c -2.929,-2.929 -7.677,-2.93 -10.607,0 -2.929,2.929 -2.929,7.678 0,10.606 l 67.175996,67.175995 c 5.59,5.589 12.889,8.439 20.23,8.565 0.17,0.011 0.339,0.026 0.512,0.026 h 123.262 c 7.903,0 14.333,6.43 14.333,14.333 0,7.903 -6.43,14.332 -14.326,14.332 l -137.644,-0.122 c -3.67,-0.003 -9.896,-1.625 -13.168,-3.419 L -207.33719,92.733345 c -0.087,-0.054 -0.175,-0.106 -0.265,-0.156 -5.477,-3.08 -14.347,-5.402 -20.632,-5.402 h -27.424 c -4.143,0 -7.5,3.358 -7.5,7.500003 0,4.141996 3.357,7.499992 7.5,7.499992 h 27.425 c 3.669,0 9.891,1.617 13.161,3.411 l 139.901996,86.394 c 0.087,0.054 0.176,0.106 0.265,0.156 5.477,3.079 14.344,5.405 20.625,5.41 l 137.65,0.121 c 16.174,0 29.333004,-13.159 29.333004,-29.333 0,-5.474 -1.511,-10.6 -4.133,-14.99 2.688,-4.501 4.133,-9.66 4.133,-15.01 z M -26.282538,-210.04265 H 210.80038 V -403.34894 H -26.282538 Z m 15.805528,-175.73299 h 205.47187 v 158.15969 H -10.47701 Z m 173.86081,17.57329 h -15.80553 v 17.5733 h -15.80553 v -17.5733 h -15.80553 v 17.5733 h -15.80552 v -17.5733 H 84.356159 v 17.5733 H 68.550631 v -17.5733 H 52.745102 v 17.5733 H 36.939574 v -17.5733 H 21.134046 v 17.5733 H 5.3285182 v 17.5733 H 21.134046 v 17.5733 H 5.3285182 v 17.5733 H 21.134046 v 17.5733 H 5.3285182 v 17.5733 H 21.134046 v 17.5733 h 15.805528 v -17.5733 h 15.805528 v 17.5733 h 15.805529 v -17.5733 h 15.805528 v 17.5733 h 15.805531 v -17.5733 h 15.80552 v 17.5733 h 15.80553 v -17.5733 h 15.80553 v 17.5733 h 15.80553 v -17.5733 h 15.80553 v -17.5733 H 163.3838 v -17.5733 h 15.80553 v -17.5733 H 163.3838 v -17.5733 h 15.80553 v -17.5733 H 163.3838 Z m -47.41659,35.1466 v 17.5733 h -15.80552 v -17.5733 z m -31.611051,0 v 17.5733 H 68.550631 v -17.5733 z m -47.416585,0 h 15.805528 v 17.5733 H 36.939574 Z m 0,52.7199 v -17.5733 h 15.805528 v 17.5733 z m 31.611057,0 v -17.5733 h 15.805528 v 17.5733 z m 31.611059,0 v -17.5733 h 15.80552 v 17.5733 z m 47.41658,0 h -15.80553 v -17.5733 h 15.80553 z m 0,-35.1466 h -15.80553 v -17.5733 h 15.80553 z M -18.378542,-438.49443 c -21.787916,0 -39.514945,19.70697 -39.514945,43.93176 v 1.11754 c -5.026167,-1.26528 -9.956447,-2.81375 -14.611179,-4.9577 -13.695493,-6.30881 -25.661168,-16.02715 -34.615004,-28.1 l -6.0923,-8.24183 -6.09476,8.23361 c -8.95383,12.08164 -20.90914,21.79119 -34.61253,28.10001 -13.7192,6.3176 -28.36504,8.86624 -42.35294,7.34615 l -9.55355,-1.02714 0.92383,10.62207 c 1.35927,15.56994 -0.92263,31.85168 -6.60472,47.07894 -5.67418,15.23605 -14.41491,28.54882 -25.27331,38.48653 l -7.40536,6.7819 7.41275,6.78464 c 10.8584,9.93771 19.59913,23.24774 25.27331,38.48379 5.68209,15.22727 7.96645,31.509 6.60718,47.07894 l -0.92629,10.62481 9.55601,-1.0381 c 13.98,-1.52009 28.6318,1.03734 42.34309,7.34616 9.30945,4.28788 17.70244,10.14667 25.08362,17.43959 l -56.38025,41.98429 c -9.34898,6.96782 -14.92651,18.59257 -14.92651,31.10477 0,19.857819 14.01796,35.9899 31.60951,37.193677 v 41.674786 c 5.26865,4.1893702 10.53732,4.5384832 15.80598,0 v -41.46388 c 6.8833,-0.06156 13.49851,-2.408787 19.14898,-6.828473 l 121.195615,-95.13301 c 5.7690109,-4.52512 13.8539791,-4.52512 19.6071985,0 L 128.43774,-58.73759 c 5.7216,4.481195 12.43147,6.855862 19.41751,6.855862 h -0.27592 V 88.703224 H 52.745907 l 0,-130.279661 c 0,-14.533124 -10.63779,-26.360712 -23.708965,-26.360712 h -63.221464 c -13.071176,0 -23.708965,11.827588 -23.708965,26.360712 l 0,93.376407 c 4.824606,7.011542 12.313548,5.876694 15.80598,1.038925 l 0,-94.415332 c 0,-4.841443 3.540666,-8.786909 7.902985,-8.786909 H 5.3279639 29.036942 c 4.362318,0 7.902984,3.945466 7.902984,8.786909 l 0,130.279661 H 5.3279639 -8.4978248 c -3.7578152,7.339104 -3.5191102,11.715866 0.4940611,17.573796 H 210.8008 V 88.703224 H 163.38285 V -51.881728 h -2.05458 c 18.56359,0 33.66655,-16.792134 33.66655,-37.431972 0,-12.5122 -5.58001,-24.13695 -14.92897,-31.10477 l -73.1544,-54.47714 h 95.98635 c 21.78793,0 39.51249,-19.70972 39.51249,-43.93451 v -175.73255 c 0,-24.22479 -17.72456,-43.93176 -39.51249,-43.93176 z m 0,17.57106 H 202.8978 c 13.07118,0 23.70898,11.82759 23.70898,26.3607 v 175.73255 c 0,14.53312 -10.6378,26.36071 -23.70898,26.36071 H -18.378542 c -13.071175,0 -23.708965,-11.82759 -23.708965,-26.36071 v -175.73255 c 0,-14.53311 10.63779,-26.3607 23.708965,-26.3607 z m -94.833428,13.08448 c 9.67299,10.82516 21.501245,19.6022 34.659351,25.66499 6.575099,3.03139 13.499219,5.31603 20.659132,6.84491 v 36.61574 c -13.047463,-17.95991 -32.985268,-29.48871 -55.318483,-29.48871 -39.22141,0 -71.12691,35.48002 -71.12691,79.07937 0,43.59935 31.9055,79.07938 71.12691,79.07938 22.333215,0 42.27102,-11.52881 55.318483,-29.48872 v 20.70181 c 0,1.15105 0.228905,2.24105 0.307939,3.37452 l -57.863292,43.09087 c -9.38059,-10.03435 -20.19935,-18.0743 -32.42492,-23.70654 -13.17391,-6.06279 -27.416,-9.32431 -40.8428,-9.10464 0.0553,-15.25362 -2.73339,-30.77013 -8.1863,-45.3999 -5.445,-14.64735 -13.34898,-27.80071 -23.09309,-38.54678 9.73621,-10.74608 17.64018,-23.9 23.09309,-38.53856 5.45291,-14.63856 8.24161,-30.14628 8.1863,-45.3999 h 0.3646 c 13.60066,0 27.42283,-3.09457 40.4782,-9.10463 13.15809,-6.07158 24.98882,-14.84805 34.66179,-25.67321 z m 0,57.21073 c 30.496776,0 55.318483,27.5891 55.318483,61.50557 0,33.91646 -24.821707,61.50558 -55.318483,61.50558 -30.49676,0 -55.32092,-27.58912 -55.32092,-61.50558 0,-33.91647 24.82416,-61.50557 55.32092,-61.50557 z m 60.344069,152.80663 c 6.733155,13.59294 19.584747,22.92592 34.489359,22.92592 h 96.878148 l 92.771454,69.09002 c 4.96293,3.69041 7.91777,9.857958 7.91777,16.49189 0,10.948159 -8.01371,19.858169 -17.86056,19.858169 h -13.47302 c -3.70639,0 -7.27818,-1.256282 -10.30493,-3.63747 L 16.344857,-168.21779 c -11.127095,-8.73393 -26.694395,-8.73393 -37.837295,0 l -121.198072,95.124789 c -3.03466,2.381188 -6.60593,3.63747 -10.31232,3.63747 h -13.47548 c -9.84685,0 -17.86057,-8.91001 -17.86057,-19.858169 0,-6.633932 2.95731,-12.81028 7.92024,-16.49189 z"
   inkscape:connector-curvature="0"
   sodipodi:nodetypes="ssssssscscssscssssccscssscccssscccccssssscccccscscccccccccccccccccccccccccccccccccccccccccccccccccccccccccccccccccccccccccccccccccccccccccccccccccccccccccccccccssccccccccccccccccccccsccccccccccccssssccsscsscccccccccsccssssssssssssssccccssscsccccccscsccssssscsccsssccccssscc"
   inkscape:export-xdpi="300"
   inkscape:export-ydpi="300" /></g>
<g
   id="g8">
</g>
<g
   id="g10">
</g>
<g
   id="g12">
</g>
<g
   id="g14">
</g>
<g
   id="g16">
</g>
<g
   id="g18">
</g>
<g
   id="g20">
</g>
<g
   id="g22">
</g>
<g
   id="g24">
</g>
<g
   id="g26">
</g>
<g
   id="g28">
</g>
<g
   id="g30">
</g>
<g
   id="g32">
</g>
<g
   id="g34">
</g>
<g
   id="g36">
</g>
</svg>