<?xml version="1.0" encoding="UTF-8" standalone="no"?>
<!-- Generator: Adobe Illustrator 19.0.0, SVG Export Plug-In . SVG Version: 6.00 Build 0)  -->

<svg
   xmlns:dc="http://purl.org/dc/elements/1.1/"
   xmlns:cc="http://creativecommons.org/ns#"
   xmlns:rdf="http://www.w3.org/1999/02/22-rdf-syntax-ns#"
   xmlns:svg="http://www.w3.org/2000/svg"
   xmlns="http://www.w3.org/2000/svg"
   xmlns:sodipodi="http://sodipodi.sourceforge.net/DTD/sodipodi-0.dtd"
   xmlns:inkscape="http://www.inkscape.org/namespaces/inkscape"
   version="1.1"
   id="Layer_1"
   x="0px"
   y="0px"
   viewBox="0 0 512 512"
   style="enable-background:new 0 0 512 512;"
   xml:space="preserve"
   sodipodi:docname="shoppopup.svg"
   inkscape:version="0.92.3 (2405546, 2018-03-11)"><metadata
   id="metadata57"><rdf:RDF><cc:Work
       rdf:about=""><dc:format>image/svg+xml</dc:format><dc:type
         rdf:resource="http://purl.org/dc/dcmitype/StillImage" /><dc:title></dc:title></cc:Work></rdf:RDF></metadata><defs
   id="defs55" /><sodipodi:namedview
   pagecolor="#ffffff"
   bordercolor="#666666"
   borderopacity="1"
   objecttolerance="10"
   gridtolerance="10"
   guidetolerance="10"
   inkscape:pageopacity="0"
   inkscape:pageshadow="2"
   inkscape:window-width="1920"
   inkscape:window-height="1018"
   id="namedview53"
   showgrid="false"
   inkscape:zoom="0.4609375"
   inkscape:cx="256"
   inkscape:cy="256"
   inkscape:window-x="-8"
   inkscape:window-y="-8"
   inkscape:window-maximized="1"
   inkscape:current-layer="Layer_1" />
<g
   id="g879"><circle
     r="387.25424"
     cy="263.59323"
     cx="261.42374"
     id="path864"
     style="color:#000000;clip-rule:nonzero;display:inline;overflow:visible;visibility:visible;opacity:1;isolation:auto;mix-blend-mode:normal;color-interpolation:sRGB;color-interpolation-filters:linearRGB;solid-color:#000000;solid-opacity:1;vector-effect:none;fill:#0000ff;fill-opacity:1;fill-rule:evenodd;stroke:#000000;stroke-width:1.00157475;stroke-linecap:round;stroke-linejoin:miter;stroke-miterlimit:4;stroke-dasharray:none;stroke-dashoffset:0;stroke-opacity:1;marker:none;paint-order:stroke fill markers;color-rendering:auto;image-rendering:auto;shape-rendering:auto;text-rendering:auto;enable-background:accumulate" /><g
     style="stroke:none;fill:#ffffff"
     id="g20">
	<g
   style="stroke:none;fill:#ffffff"
   id="g18">
		<g
   style="stroke:none;fill:#ffffff"
   id="g16">
			<path
   style="stroke:none;fill:#ffffff"
   id="path2"
   d="M153.6,366.933V384c0,4.71,3.823,8.533,8.533,8.533c4.71,0,8.533-3.823,8.533-8.533v-17.067     c0-4.71-3.823-8.533-8.533-8.533C157.423,358.4,153.6,362.223,153.6,366.933z" />
			<path
   style="stroke:none;fill:#ffffff"
   id="path4"
   d="M503.467,494.933h-8.533v-268.8c0-4.71-3.823-8.533-8.533-8.533s-8.533,3.823-8.533,8.533v268.8H34.133v-268.8     c0-4.71-3.823-8.533-8.533-8.533c-4.71,0-8.533,3.823-8.533,8.533v268.8H8.533c-4.71,0-8.533,3.823-8.533,8.533     S3.823,512,8.533,512h494.933c4.71,0,8.533-3.823,8.533-8.533S508.177,494.933,503.467,494.933z" />
			<path
   style="stroke:none;fill:#ffffff"
   id="path6"
   d="M196.267,477.867c4.71,0,8.533-3.823,8.533-8.533v-204.8c0-4.71-3.823-8.533-8.533-8.533H76.8     c-4.71,0-8.533,3.823-8.533,8.533v204.8c0,4.71,3.823,8.533,8.533,8.533s8.533-3.823,8.533-8.533V273.067h102.4v196.267     C187.733,474.044,191.556,477.867,196.267,477.867z" />
			<path
   style="stroke:none;fill:#ffffff"
   id="path8"
   d="M355.9,309.7c-3.337-3.336-8.73-3.336-12.066,0c-3.337,3.337-3.337,8.73,0,12.066l34.133,34.133     c1.664,1.664,3.849,2.5,6.033,2.5c2.185,0,4.369-0.836,6.033-2.5c3.337-3.337,3.337-8.73,0-12.066L355.9,309.7z" />
			<path
   style="stroke:none;fill:#ffffff"
   id="path10"
   d="M469.333,0H42.667C19.14,0,0,19.14,0,42.667v152.738c0,2.569,1.152,4.992,3.132,6.613c1.98,1.613,4.599,2.261,7.1,1.749     c13.628-2.765,25.114-10.897,32.427-21.914c9.173,13.824,24.883,22.946,42.675,22.946c17.784,0,33.485-9.114,42.667-22.929     c9.182,13.815,24.883,22.929,42.667,22.929s33.485-9.114,42.667-22.929C222.515,195.686,238.217,204.8,256,204.8     c17.784,0,33.485-9.114,42.667-22.929c9.182,13.815,24.883,22.929,42.667,22.929c17.783,0,33.485-9.114,42.667-22.929     c9.182,13.815,24.883,22.929,42.667,22.929c17.792,0,33.502-9.122,42.675-22.946c7.313,11.017,18.799,19.149,32.427,21.914     c2.517,0.521,5.112-0.128,7.1-1.749c1.98-1.621,3.132-4.045,3.132-6.613V42.667C512,19.14,492.86,0,469.333,0z M494.933,183.159     c-10.3-5.973-17.067-17.143-17.067-29.559V42.667c0-4.71-3.823-8.533-8.533-8.533s-8.533,3.823-8.533,8.533V153.6     c0,18.825-15.309,34.133-34.133,34.133s-34.133-15.309-34.133-34.133V42.667c0-4.71-3.823-8.533-8.533-8.533     s-8.533,3.823-8.533,8.533V153.6c0,18.825-15.309,34.133-34.133,34.133c-18.825,0-34.133-15.309-34.133-34.133V42.667     c0-4.71-3.823-8.533-8.533-8.533s-8.533,3.823-8.533,8.533V153.6c0,18.825-15.309,34.133-34.133,34.133     c-18.825,0-34.133-15.309-34.133-34.133V42.667c0-4.71-3.823-8.533-8.533-8.533c-4.71,0-8.533,3.823-8.533,8.533V153.6     c0,18.825-15.309,34.133-34.133,34.133s-34.133-15.309-34.133-34.133V42.667c0-4.71-3.823-8.533-8.533-8.533     s-8.533,3.823-8.533,8.533V153.6c0,18.825-15.309,34.133-34.133,34.133c-18.825,0-34.133-15.309-34.133-34.133V42.667     c0-4.71-3.823-8.533-8.533-8.533c-4.71,0-8.533,3.823-8.533,8.533V153.6c0,12.416-6.767,23.586-17.067,29.559V42.667     c0-14.114,11.486-25.6,25.6-25.6h426.667c14.114,0,25.6,11.486,25.6,25.6V183.159z" />
			<path
   style="stroke:none;fill:#ffffff"
   id="path12"
   d="M435.2,443.733c4.71,0,8.533-3.823,8.533-8.533V264.533c0-4.71-3.823-8.533-8.533-8.533H230.4     c-4.71,0-8.533,3.823-8.533,8.533V435.2c0,4.71,3.823,8.533,8.533,8.533H435.2z M238.933,273.067h187.733v153.6H238.933V273.067z     " />
			<path
   style="stroke:none;fill:#ffffff"
   id="path14"
   d="M390.033,292.634c-3.336-3.337-8.73-3.337-12.066,0c-3.336,3.337-3.336,8.73,0,12.066l17.067,17.067     c1.664,1.664,3.849,2.5,6.033,2.5c2.185,0,4.369-0.836,6.033-2.5c3.337-3.337,3.337-8.73,0-12.066L390.033,292.634z" />
		</g>
	</g>
</g></g>
<g
   id="g22">
</g>
<g
   id="g24">
</g>
<g
   id="g26">
</g>
<g
   id="g28">
</g>
<g
   id="g30">
</g>
<g
   id="g32">
</g>
<g
   id="g34">
</g>
<g
   id="g36">
</g>
<g
   id="g38">
</g>
<g
   id="g40">
</g>
<g
   id="g42">
</g>
<g
   id="g44">
</g>
<g
   id="g46">
</g>
<g
   id="g48">
</g>
<g
   id="g50">
</g>
</svg>